Patient4_TMGait_0pt5_01_right_30_GRF.mot
version=1
nRows=52
nColumns=19
inDegrees=no
endheader
time	F1x	F1y	F1z	M1x	M1y	M1z	F2x	F2y	F2z	M2x	M2y	M2z	EC1x	EC1y	EC1z	EC2x	EC2y	EC2z
39.44	9.4289	729.8435	50.0723	-265.3879	-40.7422	623.7885	-14.301	5.9467	-5.0869	3.1351	9.8397	1.9109	-0.0592	0.0182	-0.0073	-0.0462	0.0165	0.9585
39.4531	10.711	720.7713	53.5508	-262.4467	-42.0377	614.5438	-9.7857	4.8367	-3.4954	2.4461	6.771	2.1283	-0.0592	0.0182	-0.0073	-0.0462	0.0165	0.9585
39.4661	12.6046	711.9949	56.1762	-259.6024	-42.469	604.7229	-5.9701	3.9252	-2.1274	1.863	4.1574	2.3537	-0.0592	0.0182	-0.0073	-0.0462	0.0165	0.9585
39.4792	15.0861	704.8934	57.8277	-257.3319	-42.0036	595.5286	-3.0724	3.2606	-1.0741	1.4252	2.16	2.5568	-0.0592	0.0182	-0.0073	-0.0462	0.0165	0.9585
39.4923	18.078	700.6461	58.5902	-256.0546	-40.7532	588.07	-1.0932	2.8341	-0.33929	1.1328	0.78261	2.7278	-0.0592	0.0182	-0.0073	-0.0462	0.0165	0.9585
39.5054	21.4521	699.9605	58.7012	-256.0247	-38.9512	583.0888	0.10051	2.5857	0.11765	0.95816	-0.058343	2.8439	-0.0592	0.0182	-0.0073	-0.0462	0.0165	0.9585
39.5184	25.0523	703.0349	58.3938	-257.3118	-36.8202	580.9014	0.68755	2.4367	0.35663	0.86188	-0.48147	2.882	-0.0592	0.0182	-0.0073	-0.0462	0.0165	0.9585
39.5315	28.7187	709.5878	57.8965	-259.8081	-34.5815	581.4166	0.84154	2.297	0.43909	0.79724	-0.60608	2.8107	-0.0592	0.0182	-0.0073	-0.0462	0.0165	0.9585
39.5446	32.2934	718.9501	57.3724	-263.2638	-32.4049	584.2148	0.72225	2.0543	0.42245	0.71072	-0.54191	2.5666	-0.0592	0.0182	-0.0073	-0.0462	0.0165	0.9585
39.5576	35.6584	730.2012	56.9421	-267.3377	-30.4194	588.6521	0.43925	1.5837	0.35153	0.54487	-0.37073	2.0701	-0.0592	0.0182	-0.0073	-0.0462	0.0165	0.9585
39.5707	38.7329	742.2967	56.6626	-271.6427	-28.6938	593.9647	0.090144	0.75055	0.25995	0.24202	-0.15751	1.2023	-0.0592	0.0182	-0.0073	-0.0462	0.0165	0.9585
39.5838	41.4762	754.1509	56.5678	-275.7771	-27.2707	599.3363	-0.25547	-0.55517	0.17342	-0.24608	0.047989	-0.14698	-0.0592	0.0182	-0.0073	-0.0462	0.0165	0.9585
39.5969	43.8737	764.7198	56.671	-279.3575	-26.1666	603.9654	-0.51877	-2.4053	0.10623	-0.94953	0.20382	-2.0447	-0.0592	0.0182	-0.0073	-0.0462	0.0165	0.9585
39.6099	45.9248	773.1066	56.9793	-282.0537	-25.3887	607.1707	-0.61259	-4.7738	0.067845	-1.8597	0.26773	-4.4582	-0.0592	0.0182	-0.0073	-0.0462	0.0165	0.9585
39.623	47.6598	778.6091	57.4936	-283.6107	-24.9283	608.4121	-0.42874	-7.469	0.059211	-2.9034	0.19442	-7.2022	-0.0592	0.0182	-0.0073	-0.0462	0.0165	0.9585
39.6361	49.13	780.8105	58.1918	-283.8823	-24.7544	607.3694	0.165	-10.054	0.077184	-3.91	-0.066098	-9.8538	-0.0592	0.0182	-0.0073	-0.0462	0.0165	0.9585
39.6491	50.4027	779.5737	59.0268	-282.832	-24.8058	603.9214	1.3123	-11.7498	0.11094	-4.5762	-0.55776	-11.6425	-0.0592	0.0182	-0.0073	-0.0462	0.0165	0.9585
39.6622	51.5803	775.0359	59.9185	-280.5263	-24.9848	598.1401	3.1599	-11.3526	0.14735	-4.4311	-1.3181	-11.3773	-0.0592	0.0182	-0.0073	-0.0462	0.0165	0.9585
39.6753	52.7764	767.5264	60.7604	-277.104	-25.168	590.2457	5.7905	-7.1547	0.165	-2.8112	-2.3501	-7.36	-0.0592	0.0182	-0.0073	-0.0462	0.0165	0.9585
39.6884	54.1205	757.4002	61.4358	-272.7166	-25.2242	580.4668	9.1731	3.0179	0.14797	1.1252	-3.6156	2.5742	-0.0592	0.0182	-0.0073	-0.0462	0.0165	0.9585
39.7014	55.7072	744.8707	61.8057	-267.4671	-25.0092	568.9385	13.0479	21.6477	0.072245	8.3374	-4.9796	20.9192	-0.0592	0.0182	-0.0073	-0.0462	0.0165	0.9585
39.7145	57.5931	729.8428	61.7125	-261.354	-24.3724	555.5766	16.823	51.1262	-0.083548	19.7499	-6.1805	50.0906	-0.0592	0.0182	-0.0073	-0.0462	0.0165	0.9585
39.7276	59.7436	711.842	60.9646	-254.2391	-23.1693	540.0371	19.4224	93.06	-0.35105	35.9841	-6.7662	91.7554	-0.0592	0.0182	-0.0073	-0.0462	0.0165	0.9585
39.7406	61.9962	689.9866	59.3723	-245.8386	-21.3086	521.6896	19.259	147.2553	-0.75463	56.966	-6.1041	145.8277	-0.0592	0.0182	-0.0073	-0.0462	0.0165	0.9585
39.7537	64.039	663.1136	56.7767	-235.7686	-18.7798	499.7205	14.7026	210.6935	-1.3218	81.5214	-3.5566	209.4324	-0.0592	0.0182	-0.0073	-0.0462	0.0165	0.9585
39.7668	65.4315	630.0636	53.1402	-223.6391	-15.7104	473.3381	5.4675	277.1579	-2.2853	107.2175	1.1821	276.4881	-0.0592	0.0182	-0.0073	-0.0462	0.0165	0.9585
39.7799	65.7044	590.0448	48.5968	-209.1784	-12.3662	442.0198	-6.5393	339.3708	-4.2983	131.1776	7.9953	339.6921	-0.0592	0.0182	-0.0073	-0.0462	0.0165	0.9585
39.7929	64.4463	542.9436	43.4595	-192.333	-9.1201	405.7408	-19.2926	392.939	-7.3938	151.6652	16.093	394.4657	-0.0592	0.0182	-0.0073	-0.0462	0.0165	0.9585
39.806	61.4814	489.4379	38.1059	-173.3108	-6.3076	365.0347	-31.3291	437.7101	-11.2865	168.6057	24.6224	440.4741	-0.0592	0.0182	-0.0073	-0.0462	0.0165	0.9585
39.8191	56.8286	430.9098	32.8363	-152.5636	-4.1321	320.9261	-41.8289	475.6936	-15.5058	182.7987	32.8097	479.618	-0.0592	0.0182	-0.0073	-0.0462	0.0165	0.9585
39.8321	50.6392	369.3477	27.7885	-130.7644	-2.6386	274.8462	-50.568	509.3707	-19.7018	195.2417	40.2357	514.2764	-0.0592	0.0182	-0.0073	-0.0462	0.0165	0.9585
39.8452	43.1207	307.2416	23.0288	-108.7663	-1.8067	228.6017	-57.4778	541.1151	-23.6593	206.8839	46.6863	546.6607	-0.0592	0.0182	-0.0073	-0.0462	0.0165	0.9585
39.8583	34.6378	247.3036	18.6126	-87.5127	-1.5563	184.1401	-62.6024	572.8	-27.5491	218.4449	52.3626	578.494	-0.0592	0.0182	-0.0073	-0.0462	0.0165	0.9585
39.8714	25.7422	192.1232	14.617	-67.9195	-1.7507	143.3028	-66.1059	605.141	-31.5932	230.1955	57.5603	610.375	-0.0592	0.0182	-0.0073	-0.0462	0.0165	0.9585
39.8844	17.126	143.7017	11.1232	-50.7111	-2.207	107.4911	-68.3475	637.6615	-36.0967	241.9421	62.7176	641.8276	-0.0592	0.0182	-0.0073	-0.0462	0.0165	0.9585
39.8975	9.4437	103.0836	8.1858	-36.2755	-2.7375	77.4146	-69.6624	669.1819	-41.0534	253.2441	67.9656	671.706	-0.0592	0.0182	-0.0073	-0.0462	0.0165	0.9585
39.9106	3.1366	70.3882	5.8092	-24.6669	-3.1905	53.1487	-70.2886	698.4554	-46.3059	263.6499	73.2449	698.8273	-0.0592	0.0182	-0.0073	-0.0462	0.0165	0.9585
39.9236	-1.5215	45.0742	3.9379	-15.7003	-3.4331	34.2931	-70.2792	724.3251	-51.4818	272.7668	78.2165	722.0692	-0.0592	0.0182	-0.0073	-0.0462	0.0165	0.9585
39.9367	-4.4366	26.2369	2.4983	-9.053	-3.3826	20.2079	-69.572	745.727	-56.2386	280.2406	82.5205	740.4167	-0.0592	0.0182	-0.0073	-0.0462	0.0165	0.9585
39.9498	-5.6643	12.8668	1.4048	-4.3617	-3.0037	10.1585	-68.0795	761.7482	-60.1981	285.7743	85.7515	753.0066	-0.0592	0.0182	-0.0073	-0.0462	0.0165	0.9585
39.9629	-5.58	4.0449	0.61612	-1.2883	-2.4009	3.4799	-65.7235	771.7489	-63.1401	289.1666	87.6622	759.2218	-0.0592	0.0182	-0.0073	-0.0462	0.0165	0.9585
39.9759	-4.7774	-1.1121	0.099629	0.49119	-1.7522	-0.46246	-62.4715	775.629	-64.9338	290.4056	88.1094	758.9848	-0.0592	0.0182	-0.0073	-0.0462	0.0165	0.9585
39.989	-3.6879	-3.5902	-0.17958	1.3288	-1.184	-2.3923	-58.3234	773.974	-65.6385	289.7231	87.1521	752.878	-0.0592	0.0182	-0.0073	-0.0462	0.0165	0.9585
40.0021	-2.6044	-4.2745	-0.29808	1.5396	-0.73616	-2.954	-53.394	768.1321	-65.3651	287.6263	84.9365	742.2253	-0.0592	0.0182	-0.0073	-0.0462	0.0165	0.9585
40.0151	-1.6641	-3.9117	-0.30151	1.3859	-0.42185	-2.7288	-47.8683	759.9783	-64.3168	284.8119	81.7231	728.8445	-0.0592	0.0182	-0.0073	-0.0462	0.0165	0.9585
40.0282	-0.94439	-3.029	-0.25082	1.055	-0.2168	-2.1017	-41.9955	751.5892	-62.6861	282.0413	77.7867	714.7555	-0.0592	0.0182	-0.0073	-0.0462	0.0165	0.9585
40.0413	-0.43875	-1.9835	-0.17368	0.67231	-0.10304	-1.3467	-36.0441	744.8605	-60.7028	280.0006	73.4468	701.8032	-0.0592	0.0182	-0.0073	-0.0462	0.0165	0.9585
40.0544	-0.12569	-0.98119	-0.097321	0.30842	-0.055148	-0.61035	-30.2901	741.2515	-58.5702	279.2038	68.9991	691.4395	-0.0592	0.0182	-0.0073	-0.0462	0.0165	0.9585
40.0674	0.033178	-0.13605	-0.032515	0.0023817	-0.051641	0.01516	-24.9907	741.5679	-56.4933	279.9105	64.7359	684.5406	-0.0592	0.0182	-0.0073	-0.0462	0.0165	0.9585
40.0805	0.086681	0.51383	0.013775	-0.23237	-0.070013	0.4934	-20.3701	745.8897	-54.5991	282.1079	60.8648	681.33	-0.0592	0.0182	-0.0073	-0.0462	0.0165	0.9585
40.0936	0.061391	0.98321	0.042517	-0.40156	-0.10167	0.85273	-16.6049	753.6021	-52.9753	285.521	57.5355	681.4116	-0.0592	0.0182	-0.0073	-0.0462	0.0165	0.9585
40.1066	-0.0083437	1.284	0.0571	-0.51042	-0.13664	1.09	-13.76	763.5001	-51.652	289.6584	54.7998	683.8416	-0.0592	0.0182	-0.0073	-0.0462	0.0165	0.9585
